<?xml version="1.0" encoding="UTF-8"?>
<svg xmlns="http://www.w3.org/2000/svg" xmlns:xlink="http://www.w3.org/1999/xlink" width="10pt" height="10pt" viewBox="0 0 10 10" version="1.1">
<g id="surface1">
<path style=" stroke:none;fill-rule:nonzero;fill:rgb(23.137255%,34.901961%,59.607843%);fill-opacity:1;" d="M 10 5 C 10 7.761719 7.761719 10 5 10 C 2.238281 10 0 7.761719 0 5 C 0 2.238281 2.238281 0 5 0 C 7.761719 0 10 2.238281 10 5 Z M 10 5 "/>
<path style=" stroke:none;fill-rule:nonzero;fill:rgb(100%,100%,100%);fill-opacity:1;" d="M 6.257812 5.195312 L 5.363281 5.195312 L 5.363281 8.464844 L 4.011719 8.464844 L 4.011719 5.195312 L 3.371094 5.195312 L 3.371094 4.046875 L 4.011719 4.046875 L 4.011719 3.304688 C 4.011719 2.773438 4.265625 1.941406 5.375 1.941406 L 6.378906 1.945312 L 6.378906 3.058594 L 5.652344 3.058594 C 5.53125 3.058594 5.363281 3.117188 5.363281 3.371094 L 5.363281 4.046875 L 6.375 4.046875 Z M 6.257812 5.195312 "/>
</g>
</svg>
