<?xml version="1.0" standalone="no"?>
<!DOCTYPE svg PUBLIC "-//W3C//DTD SVG 20010904//EN"
 "http://www.w3.org/TR/2001/REC-SVG-20010904/DTD/svg10.dtd">
<svg version="1.0" xmlns="http://www.w3.org/2000/svg"
 width="500.000000pt" height="150.000000pt" viewBox="0 0 500.000000 150.000000"
 preserveAspectRatio="xMidYMid meet">
<g transform="translate(0.000000,150.000000) scale(0.100000,-0.100000)"
fill="#000000" stroke="none">
<path d="M854 872 c-31 -47 -63 -96 -71 -109 -8 -13 -13 -23 -10 -23 3 0 22
27 43 60 22 33 42 60 45 60 4 0 4 -20 2 -44 -10 -84 33 -196 75 -196 13 0 13
2 -3 13 -10 8 -15 19 -11 25 3 5 0 12 -6 14 -23 8 -16 165 10 222 26 58 26 53
2 59 -16 4 -30 -11 -76 -81z"/>
<path d="M2115 946 c-105 -24 -175 -61 -175 -92 0 -10 9 -8 33 6 40 24 176 60
224 60 42 0 73 -15 73 -36 0 -9 -7 -30 -15 -48 -15 -32 -15 -32 -83 -28 -50 3
-72 0 -87 -12 -19 -15 -14 -16 59 -10 90 8 89 15 15 -83 -27 -35 -49 -72 -49
-81 0 -9 9 1 20 23 26 53 109 147 122 139 6 -4 8 -2 4 4 -3 6 5 27 19 48 28
41 33 85 11 103 -22 18 -106 22 -171 7z"/>
<path d="M3975 948 c-11 -6 -56 -46 -100 -89 l-81 -79 -57 10 c-117 22 -282
-21 -313 -82 -14 -27 -14 -32 1 -54 19 -29 35 -32 28 -4 -13 47 63 83 213 100
87 9 101 6 82 -18 -9 -12 -7 -12 9 2 17 14 32 17 60 13 l38 -6 -24 20 -24 20
69 71 c38 38 87 79 109 89 22 10 33 19 25 18 -8 0 -24 -5 -35 -11z"/>
<path d="M1078 933 c-20 -23 -91 -139 -112 -184 -9 -19 -11 -26 -4 -15 84 124
138 209 135 212 -2 2 -11 -4 -19 -13z"/>
<path d="M3949 868 c-68 -82 -103 -158 -96 -206 9 -53 25 -61 25 -12 1 44 54
169 96 225 59 78 42 73 -25 -7z"/>
<path d="M4052 893 c-6 -2 -10 -8 -7 -13 3 -5 -15 -37 -40 -72 -53 -73 -77
-123 -73 -146 4 -19 55 -29 70 -14 5 5 -4 7 -23 4 -29 -4 -31 -3 -24 19 10 33
50 94 95 143 20 22 42 51 49 64 11 20 9 22 -11 21 -13 0 -29 -3 -36 -6z"/>
<path d="M2751 816 c-31 -51 -34 -54 -65 -49 -40 6 -80 -13 -121 -58 -16 -17
-24 -29 -17 -25 8 5 12 1 12 -11 0 -11 5 -24 12 -31 14 -14 54 -16 62 -3 3 5
-2 8 -12 7 -30 -2 -26 39 8 78 40 45 70 48 70 7 0 -17 -4 -32 -8 -35 -4 -2 -9
-24 -9 -48 -1 -40 -1 -41 6 -11 12 47 48 112 90 163 54 65 56 70 29 70 -18 0
-32 -13 -57 -54z"/>
<path d="M1525 809 c-4 -6 -4 -13 -1 -16 8 -8 36 5 36 17 0 13 -27 13 -35 -1z"/>
<path d="M2355 809 c-4 -6 -4 -13 -1 -16 8 -8 36 5 36 17 0 13 -27 13 -35 -1z"/>
<path d="M2453 809 c-7 -7 -13 -22 -13 -33 0 -19 1 -19 16 -4 9 8 14 23 12 32
-2 14 -5 15 -15 5z"/>
<path d="M4155 809 c-4 -6 -4 -13 -1 -16 8 -8 36 5 36 17 0 13 -27 13 -35 -1z"/>
<path d="M3229 769 l-24 -21 25 16 c41 27 41 18 -3 -46 -26 -38 -53 -65 -67
-69 -22 -6 -23 -7 -7 -14 24 -10 91 10 108 33 11 14 11 15 -1 5 -27 -24 -28
-13 -5 44 31 75 21 94 -26 52z"/>
<path d="M1034 736 c-24 -24 -34 -43 -34 -65 0 -27 3 -31 28 -30 15 0 21 3 15
6 -7 2 -13 10 -13 17 0 23 62 86 93 95 32 9 32 9 -11 10 -37 1 -49 -4 -78 -33z"/>
<path d="M1268 759 c-32 -18 -19 -26 32 -21 31 3 50 1 50 -6 0 -6 -6 -13 -12
-15 -8 -3 -8 -6 -2 -6 16 -1 47 36 39 48 -8 14 -84 14 -107 0z"/>
<path d="M1611 763 c-1 -7 -18 -29 -38 -50 -21 -20 -29 -31 -18 -23 19 15 19
15 2 -13 -20 -32 -15 -47 10 -31 31 20 60 77 52 104 -4 14 -7 20 -8 13z"/>
<path d="M1681 754 c0 -11 3 -14 6 -6 3 7 2 16 -1 19 -3 4 -6 -2 -5 -13z"/>
<path d="M1733 726 c-38 -50 -43 -86 -12 -86 11 0 17 4 14 10 -3 5 6 27 20 47
46 68 27 93 -22 29z"/>
<path d="M2788 736 c-29 -25 -38 -41 -38 -65 0 -19 6 -34 15 -38 21 -7 30 3
17 20 -16 19 16 77 52 92 36 16 53 10 60 -18 2 -14 4 -10 3 8 -2 27 -6 30 -37
32 -27 2 -43 -4 -72 -31z"/>
<path d="M3008 763 c8 -3 2 -18 -19 -48 -18 -26 -29 -50 -26 -59 7 -19 43 -21
53 -4 4 7 3 8 -4 4 -18 -11 -15 1 14 49 28 48 25 65 -9 64 -12 0 -16 -3 -9 -6z"/>
<path d="M1464 732 c-40 -35 -42 -85 -4 -90 14 -2 34 4 45 13 20 16 20 16 -2
6 -32 -16 -37 2 -14 54 23 52 18 55 -25 17z"/>
<path d="M2289 733 c-14 -16 -26 -43 -28 -60 -2 -29 0 -33 22 -33 20 0 23 4
20 23 -2 12 5 39 15 60 24 45 8 50 -29 10z"/>
<path d="M2467 743 c-3 -10 -13 -30 -23 -44 -34 -52 18 -82 67 -38 l24 21 -25
-16 c-47 -31 -55 -10 -15 44 14 19 25 38 25 42 0 16 -48 8 -53 -9z"/>
<path d="M3086 729 c-19 -22 -26 -42 -26 -72 l1 -42 14 33 c8 17 26 47 40 66
29 38 31 46 11 46 -8 0 -26 -14 -40 -31z"/>
<path d="M4074 712 c-28 -26 -41 -39 -29 -30 20 17 21 17 20 -10 0 -21 5 -28
25 -30 14 -2 34 4 45 13 20 16 20 16 -2 6 -32 -16 -37 2 -14 54 11 25 17 45
13 45 -4 0 -30 -22 -58 -48z"/>
<path d="M1130 717 c-32 -40 -29 -77 5 -77 13 0 27 4 30 10 3 6 -1 7 -9 4 -23
-9 -20 18 5 50 11 14 17 30 14 36 -10 15 -18 11 -45 -23z"/>
<path d="M750 710 c-6 -11 -8 -20 -6 -20 3 0 10 9 16 20 6 11 8 20 6 20 -3 0
-10 -9 -16 -20z"/>
<path d="M1653 690 c-12 -22 -17 -40 -12 -40 11 0 41 58 37 70 -2 5 -13 -8
-25 -30z"/>
<path d="M1272 692 c-23 -7 -42 -17 -42 -20 0 -4 26 -5 57 -3 45 2 59 -1 69
-14 22 -30 -12 -81 -76 -116 -19 -10 -30 -18 -24 -19 16 0 103 60 119 83 8 12
15 33 15 48 0 21 -7 29 -38 41 -32 13 -43 13 -80 0z"/>
<path d="M2838 693 c-29 -35 -29 -50 3 -45 16 2 27 8 24 12 -3 4 2 13 11 20
12 11 12 15 2 21 -18 12 -23 11 -40 -8z"/>
<path d="M3699 693 c-13 -16 -12 -17 4 -4 16 13 21 21 13 21 -2 0 -10 -8 -17
-17z"/>
<path d="M720 660 c-6 -11 -8 -20 -6 -20 3 0 10 9 16 20 6 11 8 20 6 20 -3 0
-10 -9 -16 -20z"/>
<path d="M4216 664 c-4 -9 -4 -19 -2 -22 10 -9 36 8 36 23 0 20 -26 19 -34 -1z"/>
<path d="M3478 623 c7 -3 16 -2 19 1 4 3 -2 6 -13 5 -11 0 -14 -3 -6 -6z"/>
<path d="M3548 623 c6 -2 18 -2 25 0 6 3 1 5 -13 5 -14 0 -19 -2 -12 -5z"/>
<path d="M1191 591 c-83 -29 -131 -91 -70 -91 12 0 17 4 14 11 -17 27 75 76
152 82 17 1 29 5 26 10 -8 13 -66 7 -122 -12z"/>
</g>
</svg>
